<?xml version="1.0" standalone="no"?>
<!DOCTYPE svg PUBLIC "-//W3C//DTD SVG 20010904//EN"
 "http://www.w3.org/TR/2001/REC-SVG-20010904/DTD/svg10.dtd">
<svg version="1.0" xmlns="http://www.w3.org/2000/svg"
 width="500.000000pt" height="500.000000pt" viewBox="0 0 500.000000 500.000000"
 preserveAspectRatio="xMidYMid meet">
<metadata>
Created by potrace 1.11, written by Peter Selinger 2001-2013
</metadata>
<g transform="translate(0.000000,500.000000) scale(0.100000,-0.100000)"
fill="#000000" stroke="none">
<path d="M961 4031 l-961 -969 0 -1531 0 -1531 275 0 275 0 0 285 0 284 685
590 685 590 0 -874 0 -875 255 0 255 0 0 2500 0 2500 -254 0 -254 0 -961 -969z
m955 -1447 c-2 -6 -311 -279 -685 -608 l-681 -597 0 648 -1 648 683 676 683
677 3 -717 c1 -394 0 -721 -2 -727z"/>
<path d="M3681 4186 c-448 -448 -818 -813 -823 -810 -4 3 -8 -756 -8 -1685 l0
-1691 273 0 272 0 799 789 c439 433 799 791 799 796 0 4 -112 126 -249 271
l-248 264 -568 -567 -568 -568 0 186 0 185 820 809 819 808 -47 52 c-26 28
-139 149 -252 268 l-205 217 -567 -567 -568 -568 0 236 0 235 820 809 820 809
-38 40 c-21 23 -119 127 -217 231 -98 105 -194 207 -214 227 l-36 38 -814
-814z"/>
</g>
</svg>
